<svg xmlns="http://www.w3.org/2000/svg" xml:space="preserve" viewBox="0 0 24 24"><path fill="#FFF" d="M12 3.5h11.5v17H12z"/><path fill="#177848" d="M23.5 21h-10a.5.5 0 1 1 0-1H23V4h-9.5a.5.5 0 1 1 0-1h10a.5.5 0 0 1 .5.5v17a.5.5 0 0 1-.5.5"/><path fill="#177848" d="M14 0 0 2.609V21.39L14 24z"/><path fill="#FFF" d="M0 2.609v.25L14 .25V0z" opacity=".2"/><path fill="#177848" d="M13 5h4v2h-4zM18 5h4v2h-4zM13 8h4v2h-4zM18 8h4v2h-4zM13 11h4v2h-4zM18 11h4v2h-4zM13 14h4v2h-4zM18 14h4v2h-4zM13 17h4v2h-4zM18 17h4v2h-4z"/><path d="M0 21.391 14 24v-.25L0 21.141z" opacity=".1"/><linearGradient id="a" x1="9.5" x2="23.354" y1="7.5" y2="21.354" gradientUnits="userSpaceOnUse"><stop offset="0" style="stop-color:#000;stop-opacity:.1"/><stop offset="1" style="stop-color:#000;stop-opacity:0"/></linearGradient><path fill="url(#a)" d="M23.5 21a.5.5 0 0 0 .5-.5V13L14 3v18z"/><path fill="#FFF" d="m7.358 12.5 2.297-4.136-.029-.016-1.746.125-1.38 2.483-1.274-2.294-1.65.118 2.066 3.72-2.066 3.72 1.65.118L6.5 14.044l1.38 2.483 1.746.125.03-.016z"/><linearGradient id="b" x1="-337.186" x2="-336.956" y1="438.871" y2="438.871" gradientTransform="matrix(60.9756 0 0 60.9756 20560.121 -26748.414)" gradientUnits="userSpaceOnUse"><stop offset="0" style="stop-color:#fff"/><stop offset="1" style="stop-color:#000"/></linearGradient><path fill="url(#b)" d="M14 0 0 2.609V21.39L14 24z" opacity=".05"/><linearGradient id="c" x1="-1.563" x2="25.045" y1="5.962" y2="18.369" gradientUnits="userSpaceOnUse"><stop offset="0" style="stop-color:#fff;stop-opacity:.2"/><stop offset="1" style="stop-color:#fff;stop-opacity:0"/></linearGradient><path fill="url(#c)" d="M23.5 3H14V0L0 2.609V21.39L14 24v-3h9.5a.5.5 0 0 0 .5-.5v-17a.5.5 0 0 0-.5-.5"/></svg>