<svg xmlns="http://www.w3.org/2000/svg" xml:space="preserve" viewBox="0 0 24 24"><path fill="#FFF" d="M12 3.5h11.5v17H12z"/><path fill="#015CAB" d="M23.5 21h-10a.5.5 0 1 1 0-1H23V4h-9.5a.5.5 0 1 1 0-1h10a.5.5 0 0 1 .5.5v17a.5.5 0 0 1-.5.5"/><path fill="#015CAB" d="M14 0 0 2.609V21.39L14 24z"/><path fill="#FFF" d="M0 2.609v.25L14 .25V0z" opacity=".2"/><path d="M0 21.391 14 24v-.25L0 21.141z" opacity=".1"/><path fill="#015CAB" d="M13.5 5.5h8v1h-8zM13.5 8.5h8v1h-8zM13.5 11.5h8v1h-8zM13.5 14.5h8v1h-8zM13.5 17.5h8v1h-8z"/><linearGradient id="a" x1="9.5" x2="23.354" y1="7.5" y2="21.354" gradientUnits="userSpaceOnUse"><stop offset="0" style="stop-color:#000;stop-opacity:.1"/><stop offset="1" style="stop-color:#000;stop-opacity:0"/></linearGradient><path fill="url(#a)" d="M23.5 21a.5.5 0 0 0 .5-.5V13L14 3v18z"/><path fill="#FFF" d="M7.937 16.531 9 16.607l2.214-8.372-1.583.113-1.156 4.335-1.147-4.17-1.69.12-1.113 4.05-1.039-3.896-1.525.109 1.942 7.347 1.217.087L6.5 11.5z"/><linearGradient id="b" x1="-337.186" x2="-336.956" y1="438.871" y2="438.871" gradientTransform="matrix(60.9756 0 0 60.9756 20560.121 -26748.414)" gradientUnits="userSpaceOnUse"><stop offset="0" style="stop-color:#fff"/><stop offset="1" style="stop-color:#000"/></linearGradient><path fill="url(#b)" d="M14 0 0 2.609V21.39L14 24z" opacity=".05"/><linearGradient id="c" x1="-1.563" x2="25.045" y1="5.962" y2="18.369" gradientUnits="userSpaceOnUse"><stop offset="0" style="stop-color:#fff;stop-opacity:.2"/><stop offset="1" style="stop-color:#fff;stop-opacity:0"/></linearGradient><path fill="url(#c)" d="M23.5 3H14V0L0 2.609V21.39L14 24v-3h9.5a.5.5 0 0 0 .5-.5v-17a.5.5 0 0 0-.5-.5"/></svg>